<svg width="31" height="25" viewBox="0 0 31 25" fill="none" xmlns="http://www.w3.org/2000/svg">
<path fill-rule="evenodd" clip-rule="evenodd" d="M4.43684 6.97866C4.43709 5.77543 4.74837 4.5927 5.34047 3.54524C5.93257 2.49778 6.78538 1.62117 7.81615 1.00046C8.84692 0.379761 10.0206 0.0360496 11.2234 0.00268465C12.4262 -0.0306803 13.6171 0.247434 14.6807 0.810039C15.7443 1.37264 16.6444 2.20063 17.2937 3.21366C17.9429 4.22668 18.3193 5.39034 18.3862 6.5917C18.4532 7.79306 18.2085 8.99133 17.6758 10.0702C17.1431 11.1491 16.3406 12.072 15.3461 12.7493C17.4878 13.5348 19.3453 14.9432 20.6797 16.7933C22.0142 18.6434 22.7644 20.8506 22.8339 23.1306C22.8376 23.2556 22.8167 23.3801 22.7724 23.4971C22.728 23.614 22.661 23.721 22.5753 23.812C22.4021 23.9959 22.163 24.1035 21.9106 24.111C21.6582 24.1186 21.413 24.0256 21.2292 23.8524C21.0453 23.6793 20.9378 23.4402 20.9302 23.1877C20.8546 20.7148 19.8192 18.3685 18.0432 16.646C16.2673 14.9235 13.8904 13.9602 11.4163 13.9602C8.94225 13.9602 6.56539 14.9235 4.78943 16.646C3.01348 18.3685 1.978 20.7148 1.90243 23.1877C1.88972 23.4363 1.78018 23.67 1.59728 23.8387C1.41438 24.0075 1.17266 24.0979 0.923907 24.0906C0.675155 24.0833 0.439155 23.9788 0.266466 23.7996C0.0937773 23.6205 -0.00186547 23.3808 2.7575e-05 23.1319C0.0692593 20.8516 0.819375 18.6442 2.15382 16.7939C3.48826 14.9435 5.34596 13.5349 7.48778 12.7493C6.547 12.1094 5.77712 11.2489 5.24531 10.2431C4.71351 9.23719 4.43595 8.11646 4.43684 6.97866ZM11.417 1.90221C10.0706 1.90221 8.77938 2.43705 7.82736 3.38907C6.87535 4.34109 6.34051 5.6323 6.34051 6.97866C6.34051 8.32501 6.87535 9.61623 7.82736 10.5682C8.77938 11.5203 10.0706 12.0551 11.417 12.0551C12.7633 12.0551 14.0545 11.5203 15.0065 10.5682C15.9586 9.61623 16.4934 8.32501 16.4934 6.97866C16.4934 5.6323 15.9586 4.34109 15.0065 3.38907C14.0545 2.43705 12.7633 1.90221 11.417 1.90221Z" fill="url(#paint0_linear_2352_1968)"/>
<path d="M21.9375 6.97868C21.7497 6.97868 21.5669 6.99137 21.3867 7.01675C21.2609 7.03928 21.1318 7.03624 21.0072 7.0078C20.8826 6.97936 20.7649 6.92612 20.6613 6.85124C20.5578 6.77636 20.4703 6.68139 20.4042 6.57198C20.3381 6.46257 20.2947 6.34097 20.2767 6.21443C20.2586 6.08789 20.2662 5.95901 20.299 5.83547C20.3318 5.71193 20.3892 5.59626 20.4676 5.49537C20.5461 5.39448 20.6441 5.31044 20.7558 5.24825C20.8675 5.18605 20.9905 5.14699 21.1176 5.13339C22.3799 4.9509 23.6669 5.19329 24.7763 5.82242C25.8857 6.45155 26.7544 7.43171 27.2457 8.60863C27.737 9.78555 27.823 11.0924 27.4902 12.3236C27.1573 13.5547 26.4246 14.6403 25.4072 15.4094C26.9027 16.079 28.1725 17.1671 29.0634 18.5424C29.9542 19.9176 30.4281 21.5213 30.4278 23.1598C30.4278 23.4123 30.3276 23.6544 30.1491 23.8329C29.9705 24.0114 29.7284 24.1117 29.476 24.1117C29.2236 24.1117 28.9815 24.0114 28.803 23.8329C28.6245 23.6544 28.5242 23.4123 28.5242 23.1598C28.524 21.7437 28.0677 20.3653 27.2229 19.2288C26.378 18.0922 25.1896 17.2581 23.8335 16.8498L23.1558 16.6468V14.5197L23.6762 14.2545C24.4475 13.8638 25.0646 13.2245 25.4279 12.44C25.7913 11.6554 25.8796 10.7713 25.6786 9.93032C25.4776 9.08938 24.9992 8.3407 24.3204 7.80516C23.6416 7.26961 22.8021 6.97845 21.9375 6.97868Z" fill="url(#paint1_linear_2352_1968)"/>
<defs>
<linearGradient id="paint0_linear_2352_1968" x1="11.4264" y1="24.1115" x2="11.4264" y2="1.55769e-05" gradientUnits="userSpaceOnUse">
<stop stop-color="#003773"/>
<stop offset="1" stop-color="#0054B0"/>
</linearGradient>
<linearGradient id="paint1_linear_2352_1968" x1="25.3516" y1="24.1117" x2="25.3517" y2="5.07423" gradientUnits="userSpaceOnUse">
<stop stop-color="#003773"/>
<stop offset="1" stop-color="#0054B0"/>
</linearGradient>
</defs>
</svg>
