<svg width="24" height="31" viewBox="0 0 24 31" fill="none" xmlns="http://www.w3.org/2000/svg">
<path d="M5.88854 16.8889C2.22187 16.8889 2.83298 7.11111 4.66632 4.66667C8.33298 -0.222222 15.6663 -0.222222 19.333 4.66667C21.1663 7.11111 21.7774 16.8889 18.1108 16.8889" stroke="url(#paint0_linear_2352_1953)" stroke-width="2" stroke-linecap="round" stroke-linejoin="round"/>
<path d="M1 29.111V27.2166C1 24.161 3.32222 21.7166 6.37778 21.7166C10.0444 24.7721 13.7111 24.7721 17.3778 21.7166C20.4333 21.7166 23 24.161 23 27.2166V29.111" stroke="url(#paint1_linear_2352_1953)" stroke-width="2" stroke-linecap="round" stroke-linejoin="round"/>
<path d="M14.6666 12.6111C14.6666 12.7311 14.5643 12.8334 14.4444 12.8334C14.3245 12.8334 14.2222 12.7311 14.2222 12.6111C14.2222 12.4912 14.3245 12.3889 14.4444 12.3889C14.5643 12.3889 14.6666 12.4912 14.6666 12.6111Z" fill="black" stroke="url(#paint2_linear_2352_1953)" stroke-width="2"/>
<path d="M9.7777 12.6111C9.7777 12.7311 9.67541 12.8334 9.55547 12.8334C9.43554 12.8334 9.33325 12.7311 9.33325 12.6111C9.33325 12.4912 9.43554 12.3889 9.55547 12.3889C9.67541 12.3889 9.7777 12.4912 9.7777 12.6111Z" fill="black" stroke="url(#paint3_linear_2352_1953)" stroke-width="2"/>
<path d="M5.27783 13.2223C5.27783 18.1112 8.21116 20.4945 11.8778 20.4945C15.5445 20.4945 18.7223 18.1112 18.7223 13.2223C18.7223 9.61674 17.3778 7.60007 17.3778 7.60007C16.1556 7.60007 13.8334 5.46118 13.8334 5.46118C13.8334 5.46118 8.82228 8.82229 6.01117 8.82229C6.01117 8.82229 5.27783 9.55563 5.27783 13.2223Z" stroke="url(#paint4_linear_2352_1953)" stroke-width="2" stroke-linejoin="round"/>
<path d="M10.0444 16.4001C11.2055 17.0113 12.55 17.0113 13.7111 16.4001" stroke="url(#paint5_linear_2352_1953)" stroke-width="2" stroke-linecap="round" stroke-linejoin="round"/>
<defs>
<linearGradient id="paint0_linear_2352_1953" x1="12.0067" y1="16.8889" x2="12.0068" y2="1.00001" gradientUnits="userSpaceOnUse">
<stop stop-color="#003773"/>
<stop offset="1" stop-color="#0054B0"/>
</linearGradient>
<linearGradient id="paint1_linear_2352_1953" x1="12.0089" y1="29.111" x2="12.0089" y2="21.7166" gradientUnits="userSpaceOnUse">
<stop stop-color="#003773"/>
<stop offset="1" stop-color="#0054B0"/>
</linearGradient>
<linearGradient id="paint2_linear_2352_1953" x1="14.4454" y1="13.8334" x2="14.4454" y2="11.3889" gradientUnits="userSpaceOnUse">
<stop stop-color="#003773"/>
<stop offset="1" stop-color="#0054B0"/>
</linearGradient>
<linearGradient id="paint3_linear_2352_1953" x1="9.55646" y1="13.8334" x2="9.55647" y2="11.3889" gradientUnits="userSpaceOnUse">
<stop stop-color="#003773"/>
<stop offset="1" stop-color="#0054B0"/>
</linearGradient>
<linearGradient id="paint4_linear_2352_1953" x1="12.0055" y1="20.4945" x2="12.0055" y2="5.46119" gradientUnits="userSpaceOnUse">
<stop stop-color="#003773"/>
<stop offset="1" stop-color="#0054B0"/>
</linearGradient>
<linearGradient id="paint5_linear_2352_1953" x1="11.8792" y1="16.8585" x2="11.8792" y2="16.4001" gradientUnits="userSpaceOnUse">
<stop stop-color="#003773"/>
<stop offset="1" stop-color="#0054B0"/>
</linearGradient>
</defs>
</svg>
