<svg width="20" height="20" viewBox="0 0 20 20" fill="none" xmlns="http://www.w3.org/2000/svg">
	<path d="M14.7142 13.8807L11.1783 17.4166C11.0237 17.5714 10.8401 17.6942 10.638 17.7779C10.4359 17.8617 10.2192 17.9048 10.0004 17.9048C9.78163 17.9048 9.56498 17.8617 9.36287 17.7779C9.16075 17.6942 8.97713 17.5714 8.8225 17.4166L5.28583 13.8807C4.35352 12.9484 3.71861 11.7605 3.4614 10.4673C3.2042 9.1741 3.33624 7.83367 3.84083 6.61552C4.34543 5.39736 5.19991 4.35619 6.29623 3.62366C7.39255 2.89114 8.68147 2.50015 10 2.50015C11.3185 2.50015 12.6074 2.89114 13.7038 3.62366C14.8001 4.35619 15.6546 5.39736 16.1592 6.61552C16.6638 7.83367 16.7958 9.1741 16.5386 10.4673C16.2814 11.7605 15.6465 12.9484 14.7142 13.8807V13.8807Z" stroke="#4D4AEF" stroke-width="1.2" stroke-linecap="round" stroke-linejoin="round"/>
	<path d="M11.7678 10.9344C12.2366 10.4656 12.5 9.8297 12.5 9.16666C12.5 8.50361 12.2366 7.86773 11.7678 7.39889C11.2989 6.93005 10.663 6.66666 10 6.66666C9.33696 6.66666 8.70107 6.93005 8.23223 7.39889C7.76339 7.86773 7.5 8.50361 7.5 9.16666C7.5 9.8297 7.76339 10.4656 8.23223 10.9344C8.70107 11.4033 9.33696 11.6667 10 11.6667C10.663 11.6667 11.2989 11.4033 11.7678 10.9344Z" stroke="#4D4AEF" stroke-width="1.2" stroke-linecap="round" stroke-linejoin="round"/>
</svg>
