<svg width="13" height="12" viewBox="0 0 13 12" fill="none" xmlns="http://www.w3.org/2000/svg">
<path d="M5.46359 0.582263C5.71584 -0.194088 6.81418 -0.194088 7.06639 0.582263L7.9677 3.35612C8.08053 3.70332 8.40403 3.93839 8.76915 3.93839H11.6858C12.5021 3.93839 12.8415 4.98296 12.1811 5.46277L9.82147 7.17711C9.52612 7.39165 9.4025 7.77203 9.51533 8.11921L10.4166 10.8931C10.6688 11.6694 9.78035 12.3151 9.11987 11.8353L6.76034 10.1209C6.46498 9.90632 6.06505 9.90632 5.76971 10.1209L3.41011 11.8353C2.74971 12.3151 1.86115 11.6694 2.1134 10.8931L3.01468 8.11921C3.12749 7.77203 3.0039 7.39165 2.70857 7.17711L0.348975 5.46277C-0.311434 4.98296 0.0279722 3.93839 0.844274 3.93839H3.76089C4.12595 3.93839 4.44949 3.70332 4.56231 3.35612L5.46359 0.582263Z" fill="#FDC432"/>
</svg>
